<svg xmlns="http://www.w3.org/2000/svg" xmlns:xlink="http://www.w3.org/1999/xlink" width="213.599" height="141.69" viewBox="0 0 213.599 141.69"><defs><filter id="a" x="0" y="0" width="213.599" height="133.509" filterUnits="userSpaceOnUse"><feOffset dy="3" input="SourceAlpha"/><feGaussianBlur stdDeviation="6.5" result="b"/><feFlood flood-opacity="0.161"/><feComposite operator="in" in2="b"/><feComposite in="SourceGraphic"/></filter><filter id="c" x="17.299" y="93.509" width="65" height="48.182" filterUnits="userSpaceOnUse"><feOffset dy="3" input="SourceAlpha"/><feGaussianBlur stdDeviation="6.5" result="d"/><feFlood flood-opacity="0.161"/><feComposite operator="in" in2="d"/><feComposite in="SourceGraphic"/></filter></defs><g transform="translate(-422.9 -349.808)"><g transform="matrix(1, 0, 0, 1, 422.9, 349.81)" filter="url(#a)"><rect width="174.599" height="94.509" rx="8" transform="translate(19.5 16.5)" fill="#fff"/></g><rect width="100" height="9" rx="3.21" transform="translate(452 383)" fill="rgba(0,31,125,0.33)"/><rect width="150" height="6" rx="3" transform="translate(452 400)" fill="rgba(0,31,125,0.24)"/><rect width="70" height="5" rx="2.5" transform="translate(452 416)" fill="rgba(0,31,125,0.23)"/><rect width="41" height="15" transform="translate(561 431)" fill="rgba(0,31,125,0.6)"/><rect width="26" height="8" transform="translate(523 435)" fill="rgba(0,31,125,0.17)"/><g transform="matrix(1, 0, 0, 1, 422.9, 349.81)" filter="url(#c)"><path d="M0,0V26L9.182,13Z" transform="translate(62.8 110.01) rotate(90)" fill="#fff"/></g></g></svg>